<svg xmlns="http://www.w3.org/2000/svg" xmlns:xlink="http://www.w3.org/1999/xlink" width="1000" zoomAndPan="magnify" viewBox="0 0 750 749.999995" height="1000" preserveAspectRatio="xMidYMid meet" version="1.0"><defs><g/><clipPath id="b9d580192e"><path d="M 59 404 L 306 404 L 306 456.914062 L 59 456.914062 Z M 59 404 " clip-rule="nonzero"/></clipPath><clipPath id="c1998e81af"><path d="M 59 261.164062 L 306 261.164062 L 306 309 L 59 309 Z M 59 261.164062 " clip-rule="nonzero"/></clipPath></defs><g clip-path="url(#b9d580192e)"><path fill="#000000" d="M 182.097656 456.8125 C 142.71875 456.8125 103.339844 456.8125 63.960938 456.914062 C 60.058594 456.929688 59.261719 455.902344 59.261719 452.140625 C 59.507812 437.671875 59.4375 423.207031 59.261719 408.738281 C 59.261719 405.84375 59.941406 404.933594 62.992188 404.945312 C 142.667969 405.035156 222.335938 405.035156 302 404.945312 C 305.066406 404.945312 305.757812 405.828125 305.730469 408.753906 C 305.585938 423.21875 305.527344 437.6875 305.730469 452.15625 C 305.730469 455.902344 304.921875 456.914062 301.0625 456.902344 C 261.4375 456.757812 221.753906 456.8125 182.097656 456.8125 Z M 182.097656 456.8125 " fill-opacity="1" fill-rule="nonzero"/></g><path fill="#000000" d="M 182.546875 331.957031 C 222.070312 331.957031 261.582031 331.957031 301.046875 331.871094 C 304.804688 331.871094 305.816406 332.679688 305.730469 336.515625 C 305.46875 350.1875 305.570312 363.871094 305.730469 377.542969 C 305.730469 380.207031 305.484375 381.480469 302.191406 381.464844 C 222.398438 381.320312 142.605469 381.316406 62.804688 381.449219 C 60.015625 381.449219 59.261719 380.800781 59.261719 377.964844 C 59.421875 363.972656 59.480469 349.984375 59.261719 336.007812 C 59.261719 332.464844 60.261719 331.871094 63.597656 331.882812 C 103.210938 332.058594 142.878906 331.957031 182.546875 331.957031 Z M 182.546875 331.957031 " fill-opacity="1" fill-rule="nonzero"/><g clip-path="url(#c1998e81af)"><path fill="#000000" d="M 182.34375 308.097656 C 142.835938 308.097656 103.308594 308.097656 63.84375 308.171875 C 60.304688 308.1875 59.261719 307.460938 59.261719 303.757812 C 59.507812 290.839844 59.449219 277.917969 59.261719 265 C 59.261719 262.089844 59.925781 261.164062 63.003906 261.164062 C 142.652344 261.253906 222.300781 261.253906 301.957031 261.164062 C 304.847656 261.164062 305.816406 261.773438 305.773438 264.882812 C 305.582031 277.808594 305.582031 290.726562 305.773438 303.644531 C 305.773438 307.117188 305.050781 308.1875 301.367188 308.171875 C 261.695312 308.042969 222.027344 308.097656 182.34375 308.097656 Z M 182.34375 308.097656 " fill-opacity="1" fill-rule="nonzero"/></g><g fill="#000000" fill-opacity="1"><g transform="translate(530.452371, 348.991544)"><g/></g></g><g fill="#000000" fill-opacity="1"><g transform="translate(474.201796, 453.263402)"><g><path d="M 11.554688 -96.300781 C 11.554688 -32.46875 58.882812 2.75 109.785156 2.75 C 146.65625 2.75 181.046875 -13.757812 195.632812 -52.554688 C 201.960938 -70.164062 202.511719 -87.222656 201.410156 -105.65625 L 111.160156 -105.65625 L 111.160156 -71.8125 L 163.714844 -71.8125 C 155.460938 -42.921875 136.199219 -34.667969 109.785156 -34.667969 C 75.390625 -34.667969 53.378906 -59.707031 53.378906 -96.300781 C 53.378906 -130.695312 73.738281 -158.210938 109.785156 -158.210938 C 131.796875 -158.210938 147.203125 -150.78125 156.835938 -132.070312 L 197.28125 -132.070312 C 186.277344 -176.921875 148.03125 -195.355469 109.785156 -195.355469 C 59.15625 -195.355469 11.554688 -160.136719 11.554688 -96.300781 Z M 11.554688 -96.300781 "/></g></g></g><g fill="#000000" fill-opacity="1"><g transform="translate(686.057812, 453.263402)"><g/></g></g><g fill="#000000" fill-opacity="1"><g transform="translate(318.781656, 452.559154)"><g><path d="M 97.515625 2.746094 C 138.167969 2.746094 173.605469 -20.601562 173.605469 -63.726562 L 173.605469 -192.285156 L 132.949219 -192.285156 L 132.949219 -64.550781 C 132.949219 -43.949219 116.46875 -33.511719 97.515625 -33.511719 C 78.5625 -33.511719 61.804688 -43.949219 61.804688 -64.550781 L 61.804688 -192.285156 L 20.601562 -192.285156 L 20.601562 -63.726562 C 20.601562 -20.601562 56.859375 2.746094 97.515625 2.746094 Z M 97.515625 2.746094 "/></g></g></g></svg>