<?xml version="1.0" standalone="no"?>
<!DOCTYPE svg PUBLIC "-//W3C//DTD SVG 20010904//EN"
 "http://www.w3.org/TR/2001/REC-SVG-20010904/DTD/svg10.dtd">
<svg version="1.0" xmlns="http://www.w3.org/2000/svg"
 width="300.000000pt" height="97.000000pt" viewBox="0 0 300.000000 97.000000"
 preserveAspectRatio="xMidYMid meet">
<metadata>
Created by potrace 1.10, written by Peter Selinger 2001-2011
</metadata>
<g transform="translate(0.000000,97.000000) scale(0.050000,-0.050000)"
fill="#000000" stroke="none">
<path d="M4820 1911 c-237 -66 -438 -217 -547 -409 l-63 -112 -6 265 -5 265
-188 0 -189 0 -6 -659 c-6 -628 -8 -661 -47 -713 -157 -210 -511 -199 -610 18
-35 77 -38 138 -39 719 l0 635 -201 0 -201 0 7 -685 c8 -781 12 -807 168 -967
368 -378 1132 -246 1280 222 l33 107 67 -113 c198 -335 621 -508 1031 -422
419 88 674 430 676 903 l0 115 -440 0 -440 0 0 -160 0 -160 250 0 c269 0 271
-1 218 -106 -193 -382 -837 -324 -980 88 -81 233 -39 507 103 676 185 219 606
222 792 5 l71 -83 183 0 c213 0 214 1 125 176 -168 333 -634 510 -1042 395z"/>
<path d="M29 1894 c-6 -15 -8 -116 -5 -225 l6 -199 1186 -5 1185 -5 -5 225 -6
225 -1176 5 c-963 4 -1177 1 -1185 -21z"/>
<path d="M33 1227 c-7 -8 -13 -116 -13 -240 l0 -227 1191 0 1190 0 -5 235 -6
235 -1172 5 c-644 3 -1177 -1 -1185 -8z"/>
<path d="M45 527 c-44 -18 -35 -487 10 -487 33 -1 2297 -1 2331 0 8 0 13 110
10 245 l-6 245 -1160 4 c-638 1 -1171 -2 -1185 -7z"/>
</g>
</svg>
