<?xml version="1.0" standalone="no"?>
<!DOCTYPE svg PUBLIC "-//W3C//DTD SVG 20010904//EN"
 "http://www.w3.org/TR/2001/REC-SVG-20010904/DTD/svg10.dtd">
<svg version="1.0" xmlns="http://www.w3.org/2000/svg"
 width="900.000000pt" height="900.000000pt" viewBox="0 0 900.000000 900.000000"
 preserveAspectRatio="xMidYMid meet">
<metadata>
Created by potrace 1.10, written by Peter Selinger 2001-2011
</metadata>
<g transform="translate(0.000000,900.000000) scale(0.100000,-0.100000)"
fill="#000000" stroke="none">
<path d="M7320 6004 c-254 -37 -490 -119 -648 -225 -24 -16 -45 -29 -48 -29
-13 0 -171 -127 -223 -181 -32 -32 -64 -59 -70 -59 -8 0 -11 66 -11 225 l0
225 -315 0 -315 0 0 -1027 c0 -978 -1 -1031 -19 -1099 -24 -90 -61 -155 -126
-220 -27 -27 -113 -84 -128 -84 -7 0 -21 -7 -31 -15 -11 -8 -29 -15 -40 -15
-12 0 -39 -7 -61 -15 -60 -21 -243 -19 -332 5 -162 43 -279 133 -344 266 l-34
69 -5 1065 -5 1065 -320 0 -320 0 -3 -1060 c-2 -916 0 -1067 13 -1118 8 -32
15 -67 15 -78 0 -61 84 -247 154 -344 59 -81 213 -224 266 -248 8 -4 29 -16
45 -27 17 -11 37 -23 45 -26 8 -4 43 -19 78 -35 34 -16 67 -29 73 -29 6 0 25
-6 42 -14 46 -19 113 -36 182 -46 33 -5 80 -13 105 -19 57 -13 322 -14 375 -1
22 6 69 14 105 20 132 20 315 86 415 151 17 10 38 22 48 25 9 4 17 10 17 14 0
4 11 12 24 18 66 30 237 221 275 307 5 11 17 28 28 37 18 17 21 15 62 -41 74
-102 248 -258 376 -338 47 -29 222 -113 236 -113 8 0 20 -5 26 -11 6 -6 26
-14 44 -19 19 -4 48 -13 64 -18 134 -46 251 -64 455 -69 467 -13 889 156 1153
461 106 124 184 256 240 411 35 96 40 112 47 150 4 22 12 60 18 85 6 25 15 77
19 115 6 48 12 69 21 67 9 -1 12 44 12 201 l0 204 -37 12 c-29 9 -211 11 -723
9 l-685 -3 -3 -259 c-2 -201 1 -261 10 -267 7 -5 187 -8 401 -8 213 0 392 -3
398 -6 21 -14 -3 -84 -77 -224 -41 -79 -185 -219 -264 -257 -103 -50 -139 -64
-165 -64 -13 0 -36 -5 -52 -11 -77 -30 -405 -29 -523 2 -276 72 -480 259 -583
534 -61 164 -91 406 -67 540 5 28 12 73 16 100 22 183 155 437 290 552 71 60
123 97 154 109 17 7 62 26 100 43 78 35 140 44 320 48 217 5 295 -8 440 -76
44 -20 146 -95 183 -134 37 -39 107 -134 107 -145 0 -5 10 -18 23 -30 23 -22
29 -22 331 -22 l308 0 -5 38 c-8 69 -89 258 -149 350 -15 24 -28 46 -28 49 0
8 -63 84 -129 156 -50 54 -184 163 -221 180 -8 4 -28 16 -45 27 -47 30 -167
88 -198 96 -15 3 -30 10 -33 15 -3 5 -15 9 -27 9 -12 0 -35 7 -51 15 -15 8
-38 15 -49 15 -11 0 -43 6 -71 14 -139 39 -413 53 -576 30z"/>
<path d="M17 5882 c-15 -17 -17 -55 -17 -341 0 -203 4 -329 10 -342 11 -19 42
-19 1885 -19 1030 0 1880 3 1889 6 14 5 16 45 16 348 0 253 -3 345 -12 354 -9
9 -441 12 -1883 12 -1801 0 -1873 -1 -1888 -18z"/>
<path d="M17 4792 c-15 -17 -17 -57 -17 -370 l0 -352 22 -13 c34 -21 3737 -19
3762 2 14 12 16 51 16 369 0 326 -1 356 -17 368 -15 11 -348 13 -1884 14
-1795 0 -1867 -1 -1882 -18z"/>
<path d="M12 3668 c-9 -9 -12 -107 -12 -381 0 -340 1 -371 17 -383 26 -19
3740 -21 3766 -1 16 11 17 44 15 392 l-3 380 -1885 3 c-1459 1 -1889 -1 -1898
-10z"/>
</g>
</svg>
